<?xml version="1.0" encoding="UTF-8"?>
<svg width="31px" height="38px" viewBox="0 0 31 38" version="1.1" xmlns="http://www.w3.org/2000/svg" xmlns:xlink="http://www.w3.org/1999/xlink">
    <!-- Generator: sketchtool 52.5 (67469) - http://www.bohemiancoding.com/sketch -->
    <title>51C33604-F133-4BA1-82DC-43DCF214D318</title>
    <desc>Created with sketchtool.</desc>
    <g id="Admin" stroke="none" stroke-width="1" fill="none" fill-rule="evenodd">
        <g id="Add-user-01" transform="translate(-556.000000, -190.000000)" fill="#CBD4DF" fill-rule="nonzero">
            <g id="Group-2" transform="translate(536.000000, 174.000000)">
                <path d="M25.465995,33.0073756 C25.7002519,33.7892238 26.0906801,35.2747354 27.0277078,36.1347685 C27.7304786,38.7148675 29.7607053,41.7249831 33.0403023,42.8977555 C33.8211587,43.1714023 34.6410579,43.327772 35.5,43.327772 C36.3198992,43.327772 37.1397985,43.1714023 37.9206549,42.8977555 C41.2002519,41.7249831 43.2304786,38.75396 43.9332494,36.1347685 C44.8702771,35.2747354 45.2607053,33.7892238 45.4949622,33.0073756 C45.8463476,31.7564185 46.197733,29.99726 45.2607053,28.7463029 C45.2216625,28.7072105 45.1826196,28.6681181 45.1435768,28.5899333 C45.2216625,28.1599167 45.2607053,27.7299002 45.2997481,27.3389761 C46.3929471,19.989603 42.3324937,19.5204941 41.8639798,19.5204941 C41.824937,19.5204941 41.824937,19.4814016 41.7858942,19.4814016 C41.3173804,17.5658735 38.5843829,15.5721606 36.0075567,16.0803619 C33.4697733,16.6276557 28.1209068,16.0021771 28.1209068,16.0021771 C28.0428212,17.135857 29.0188917,17.9177052 29.0188917,17.9177052 C24.5289673,20.654174 25.3488665,26.5180355 25.7783375,28.5899333 C25.7392947,28.6290257 25.7002519,28.6681181 25.6612091,28.7463029 C24.7632242,29.99726 25.1146096,31.7564185 25.465995,33.0073756 Z M27.8085642,29.5672435 C27.8476071,29.5672435 27.8866499,29.5672435 27.9256927,29.5672435 C27.9256927,29.5672435 27.9256927,29.5281511 27.9256927,29.5281511 C27.8085642,29.137227 27.2619647,26.9089596 29.175063,25.5798177 C30.7367758,25.9316494 33.0793451,26.0098342 36.2808564,24.6415998 C42.4105793,22.0224083 42.9571788,29.6063359 42.9571788,29.6063359 C42.9962217,29.6063359 43.0352645,29.6063359 43.0743073,29.6063359 C43.6989924,29.6063359 44.3627204,30.1145373 43.6599496,32.5382667 C43.1133501,34.4537948 42.6057935,35.0010886 42.2544081,35.0010886 C41.9030227,37.2684484 40.1460957,40.1612867 37.256927,41.1776894 C36.6712846,41.3731515 36.0465995,41.4904287 35.4219144,41.4904287 C34.7972292,41.4904287 34.1725441,41.3731515 33.5869018,41.1776894 C30.7367758,40.1612867 28.940806,37.2684484 28.5894207,35.0010886 C28.1989924,34.9619962 27.6914358,34.4537948 27.1838791,32.5382667 C26.5201511,30.0363524 27.1838791,29.5672435 27.8085642,29.5672435 Z M43.3476071,41.2949666 C45.0654912,42.1940921 47.9546599,43.8359733 51,46.0642407 C47.5251889,50.8726072 41.8639798,54 35.5,54 C29.1360202,54 23.4748111,50.8726072 20,46.0251483 C23.0453401,43.7968809 25.9735516,42.1549997 27.6523929,41.2558742 C28.8236776,42.663201 30.3853904,43.9141581 32.4156171,44.6569139 C33.3916877,45.0087456 34.4458438,45.2042077 35.5,45.2042077 C36.5541562,45.2042077 37.5692695,45.047838 38.5453401,44.6960063 C40.5755668,43.9923429 42.1763224,42.7413858 43.3476071,41.2949666 Z" id="Combined-Shape"></path>
            </g>
        </g>
    </g>
</svg>