<?xml version="1.0" encoding="UTF-8"?>
<svg width="100px" height="15px" viewBox="0 0 100 15" version="1.1" xmlns="http://www.w3.org/2000/svg" xmlns:xlink="http://www.w3.org/1999/xlink">
    <!-- Generator: Sketch 52.5 (67469) - http://www.bohemiancoding.com/sketch -->
    <title>Group 14</title>
    <desc>Created with Sketch.</desc>
    <defs>
        <polygon id="path-1" points="1.16022099e-05 0.0198 20.9612602 0.0198 20.9612602 14.879964 1.16022099e-05 14.879964"></polygon>
        <polygon id="path-3" points="0.0144560284 0.0198 16.9108887 0.0198 16.9108887 14.879976 0.0144560284 14.879976"></polygon>
        <polygon id="path-5" points="0.102465116 0.0199717742 14.8960465 0.0199717742 14.8960465 14.9804153 0.102465116 14.9804153"></polygon>
    </defs>
    <g id="Symbols" stroke="none" stroke-width="1" fill="none" fill-rule="evenodd">
        <g id="navigation/nav-default" transform="translate(-14.000000, -23.000000)">
            <g id="Group-14" transform="translate(13.250000, 23.000000)">
                <g id="Group-3" transform="translate(0.750000, 0.000000)">
                    <mask id="mask-2" fill="white">
                        <use xlink:href="#path-1"></use>
                    </mask>
                    <g id="Clip-2"></g>
                    <path d="M2.49135414,7.401444 C2.49135414,11.547564 5.8631884,14.008164 10.5275088,14.008164 C14.9107077,14.008164 18.4699177,11.760684 18.4699177,7.498284 C18.4699177,3.332844 15.0794039,0.891564 10.4150834,0.891564 C6.03176851,0.891564 2.49135414,3.119724 2.49135414,7.401444 M10.6211387,0.019764 C16.3532105,0.019764 20.9612602,2.751564 20.9612602,7.285164 C20.9612602,11.799324 16.6154204,14.879964 10.3401331,14.879964 C4.60806133,14.879964 1.16022099e-05,12.148164 1.16022099e-05,7.556484 C1.16022099e-05,3.042204 4.3270558,0.019764 10.6211387,0.019764" id="Fill-1" fill="#FEFEFE" mask="url(#mask-2)"></path>
                </g>
                <g id="Group-6" transform="translate(25.750000, 0.000000)">
                    <mask id="mask-4" fill="white">
                        <use xlink:href="#path-3"></use>
                    </mask>
                    <g id="Clip-5"></g>
                    <path d="M0.286938298,0.058536 C1.31863333,0.891576 5.71789574,4.398456 9.55278227,7.130256 C11.8497113,8.718816 14.0299312,10.385136 15.5094135,11.431296 C15.5288248,9.551976 15.5677681,7.847016 15.5677681,6.103416 C15.5677681,4.359696 15.5288248,2.557896 15.431527,0.465456 C15.6262433,0.504096 15.8987255,0.523536 16.1712078,0.523536 C16.4436901,0.523536 16.7162929,0.504096 16.9108887,0.465456 C16.7552362,2.848536 16.696761,5.289576 16.696761,7.885776 C16.696761,10.075056 16.7357043,12.400056 16.8330021,14.879976 L16.5994631,14.879976 C15.5677681,14.085576 11.7330021,11.043816 8.67673972,8.835096 C5.79578227,6.839616 3.10954113,4.785936 1.39651986,3.545976 C1.3575766,4.766496 1.33816525,5.987136 1.33816525,7.207656 C1.33816525,9.590736 1.41593121,11.973696 1.55229291,14.434296 C1.33816525,14.395536 1.08509433,14.376216 0.812491489,14.376216 C0.54000922,14.376216 0.26752695,14.395536 0.0728106383,14.434296 C0.150697163,12.826296 0.189640426,10.946976 0.189640426,8.951376 C0.189640426,6.025896 0.111753901,2.887176 0.0144560284,0.019776 L0.286938298,0.019776 L0.286938298,0.058536 Z" id="Fill-4" fill="#FEFEFE" mask="url(#mask-4)"></path>
                </g>
                <path d="M62.4370644,6.95147199 C62.4370644,3.84459697 60.64633,1.04849365 55.6100917,1.04849365 C53.6888069,1.04849365 50.8908711,1.08734011 48.9697019,1.16503303 C48.9322698,2.38839589 48.9136693,3.43688953 48.9136693,6.91262553 C48.9136693,9.8447516 48.9509859,11.4757016 48.9883025,12.834967 C50.8908711,12.8931765 53.7074075,12.9515064 55.6100917,12.9515064 C60.64633,12.9515064 62.4370644,10.0777101 62.4370644,6.95147199 M46.9178669,6.91262553 C46.9178669,2.21352668 46.8059171,1.43683799 46.75,0 C47.794518,0.0387261934 49.3054357,0.0775726546 50.3686699,0.0775726546 C51.5996553,0.0775726546 52.9800227,0 55.6100917,0 C62.0452979,0 64.75,3.26214059 64.75,6.95147199 C64.75,10.6796498 62.0452979,14 55.6100917,14 C52.7561232,14 51.5437382,13.9224273 50.424587,13.9224273 C49.3427523,13.9224273 47.8318346,13.9806369 46.75,14 C46.8059171,12.563162 46.9178669,10.7184963 46.9178669,6.91262553" id="Fill-7" fill="#FEFEFE"></path>
                <path d="M75.0368555,1.45630884 C73.6094244,3.7087829 72.0524877,6.21357639 70.5325199,8.69900694 L79.2631216,8.69900694 C77.9285716,6.31063157 76.5382241,3.90289327 75.0368555,1.45630884 M76.7978092,0.621417772 C79.3742575,5.26214693 81.7099495,9.22336953 84.75,14 C84.1752618,13.9611539 83.7860563,13.9416707 83.4153353,13.9416707 C83.026015,13.9416707 82.6551791,13.9611539 82.0806706,14 C81.3392284,12.5825373 80.5977863,11.1650746 79.837745,9.74749158 L69.9022137,9.74749158 C69.0309216,11.2039207 68.1783435,12.6601093 67.418417,14 C67.2329991,13.9611539 66.917846,13.9416707 66.5842085,13.9416707 C66.250571,13.9416707 65.9168187,13.9611539 65.75,14 C68.511981,9.92235929 71.8484706,4.8349598 74.4807165,0.601934575 C74.202647,0.33013195 73.8134415,0.233076764 73.2202189,0.19411037 L73.2202189,0 C73.6094244,0 74.2583298,0.0582090578 74.6475352,0.0582090578 C75.0738243,0.0582090578 75.5559109,0 75.796782,0 C76.3158374,0 76.5568233,0.0582090578 76.7978092,0.621417772" id="Fill-9" fill="#FEFEFE"></path>
                <g id="Group-13" transform="translate(85.750000, 0.000000)">
                    <mask id="mask-6" fill="white">
                        <use xlink:href="#path-5"></use>
                    </mask>
                    <g id="Clip-12"></g>
                    <path d="M14.257814,2.83235081 L14.0701395,2.87142339 C12.981186,1.62146371 10.7659535,0.937875 7.89362791,0.937875 C3.74455814,0.937875 2.65572093,2.44174597 2.65572093,3.5744879 C2.65572093,7.63694758 14.8960698,4.33622177 14.8960698,10.4883992 C14.8960698,14.3749718 10.0713023,14.9804153 7.2364186,14.9804153 C4.40165116,14.9804153 2.33653488,14.4727137 0.628162791,13.7109798 L0.102465116,11.7969073 L0.290255814,11.7383589 C1.28525581,13.2422298 4.55176744,14.0625121 7.29281395,14.0625121 C9.99618605,14.0625121 13.1876977,13.3593266 13.1876977,10.9375524 C13.1876977,6.44553629 0.947232558,9.82428629 0.947232558,4.0237621 C0.947232558,0.430173387 5.52804651,0.0199717742 7.66827907,0.0199717742 C10.4279302,0.0199717742 12.6432791,0.586342742 13.9386279,1.26993145 L14.257814,2.83235081 Z" id="Fill-11" fill="#FEFEFE" mask="url(#mask-6)"></path>
                </g>
            </g>
        </g>
    </g>
</svg>