<?xml version="1.0" encoding="UTF-8"?>
<svg width="20px" height="22px" viewBox="0 0 20 22" version="1.1" xmlns="http://www.w3.org/2000/svg" xmlns:xlink="http://www.w3.org/1999/xlink">
    <!-- Generator: sketchtool 52.5 (67469) - http://www.bohemiancoding.com/sketch -->
    <title>12C4FC88-2E9F-442B-ADEA-BC9D6900B347</title>
    <desc>Created with sketchtool.</desc>
    <g id="All-Towers" stroke="none" stroke-width="1" fill="none" fill-rule="evenodd">
        <g id="All-Towers-full-view" transform="translate(-1219.000000, -20.000000)" fill="#FFFFFF" fill-rule="nonzero">
            <g id="navigation/overview" transform="translate(333.000000, 20.000000)">
                <path d="M899.310509,19.079646 C899.116419,20.7240662 897.708277,22 896,22 C894.291723,22 892.883581,20.7240662 892.689491,19.079646 L888.160742,19.079646 C886.967376,19.079646 886,18.1212838 886,16.9380531 C886,15.756463 886.966602,14.7964602 888.157681,14.7964602 C888.264473,14.7964602 888.352941,14.7085642 888.352941,14.6010911 L888.352941,9.92891127 C888.352941,6.59838271 890.529162,3.70066478 893.647059,2.70238211 L893.647059,2.3366156 C893.647059,1.04674143 894.701882,0 896,0 C897.300193,0 898.352941,1.04455377 898.352941,2.3366156 L898.352941,2.70243032 C901.470759,3.70084635 903.647059,6.59908986 903.647059,9.92891127 L903.647059,14.6010911 C903.647059,14.7106983 903.733474,14.7964602 903.842319,14.7964602 C905.031557,14.7964602 906,15.7561538 906,16.9380531 C906,18.1198981 905.03177,19.079646 903.839258,19.079646 L899.310509,19.079646 Z M898.121299,19.079646 L893.878701,19.079646 C894.063115,20.0765061 894.942718,20.8318584 896,20.8318584 C897.057282,20.8318584 897.936885,20.0765061 898.121299,19.079646 Z M894.381852,3.70670423 C891.546592,4.43094224 889.529412,6.97949942 889.529412,9.92891127 L889.529412,14.6010911 C889.529412,15.3535504 888.914382,15.9646018 888.157681,15.9646018 C887.616416,15.9646018 887.176471,16.4015433 887.176471,16.9380531 C887.176471,17.475546 887.616529,17.9115044 888.160742,17.9115044 L903.839258,17.9115044 C904.382469,17.9115044 904.823529,17.4743079 904.823529,16.9380531 C904.823529,16.4018165 904.382329,15.9646018 903.842319,15.9646018 C903.083855,15.9646018 902.470588,15.3559721 902.470588,14.6010911 L902.470588,9.92891127 C902.470588,6.98019582 900.453275,4.43104476 897.618128,3.70672817 L897.176471,3.59389473 L897.176471,2.3366156 C897.176471,1.68988604 896.650633,1.16814159 896,1.16814159 C895.351474,1.16814159 894.823529,1.69204157 894.823529,2.3366156 L894.823529,3.59388227 L894.381852,3.70670423 Z" id="Shape"></path>
            </g>
        </g>
    </g>
</svg>