<?xml version="1.0" encoding="UTF-8"?>
<svg width="15px" height="16px" viewBox="0 0 15 16" version="1.1" xmlns="http://www.w3.org/2000/svg" xmlns:xlink="http://www.w3.org/1999/xlink">
    <!-- Generator: sketchtool 56.3 (101010) - https://sketch.com -->
    <title>C230D7B5-AA92-47DD-A6A8-3CBCD276E09E</title>
    <desc>Created with sketchtool.</desc>
    <g id="remote" stroke="none" stroke-width="1" fill="none" fill-rule="evenodd">
        <g id="Remote1-performance" transform="translate(-1189.000000, -195.000000)" fill="#000000">
            <g id="icons/xl-copy" transform="translate(1178.000000, 185.000000)">
                <path d="M23.7093492,12.2907147 C22.3635577,11.1606047 20.630031,10.4787409 18.7393867,10.4787409 C14.4720328,10.4787409 11,13.9507731 11,18.2181269 C11,22.4854808 14.4720328,25.957513 18.7393867,25.957513 C20.8693934,25.957513 22.8010484,25.0923135 24.2022763,23.6947399 L23.3003106,22.7927743 C22.130307,23.959044 20.5176423,24.6808654 18.7393388,24.6808654 C15.1757106,24.6808654 12.2765525,21.7817073 12.2765525,18.2180791 C12.2765525,14.6544508 15.1757106,11.7552928 18.7393388,11.7552928 C20.2777373,11.7552928 21.6914758,12.2963477 22.8029155,13.1970845 L20.574451,15.425549 L26,15.425549 L26,10 L23.7093492,12.2907147 Z" id="Fill-1"></path>
            </g>
        </g>
    </g>
</svg>