<?xml version="1.0" encoding="UTF-8"?>
<svg width="16px" height="20px" viewBox="0 0 16 20" version="1.1" xmlns="http://www.w3.org/2000/svg" xmlns:xlink="http://www.w3.org/1999/xlink">
    <!-- Generator: sketchtool 55.2 (78181) - https://sketchapp.com -->
    <title>86471239-E454-4D0F-ACE1-1023A731BBDE</title>
    <desc>Created with sketchtool.</desc>
    <g id="All-Towers" stroke="none" stroke-width="1" fill="none" fill-rule="evenodd">
        <g id="All-Towers-events" transform="translate(-1192.000000, -200.000000)" fill="#000000">
            <g id="icons/xl" transform="translate(1181.000000, 193.000000)">
                <g id="Group">
                    <g id="Group-6">
                        <g id="Group-5" transform="translate(11.000000, 7.000000)">
                            <polygon id="Fill-1" points="2.49517949 10.1146667 3.77643077 10.1146667 4.44709744 11.5040821 5.09452308 10.1146667 6.36135385 10.1146667 5.19148718 12.3021538 6.47433846 14.6313846 5.16504615 14.6313846 4.42385641 13.1802667 3.67786667 14.6313846 2.37819487 14.6313846 3.67786667 12.2771282"></polygon>
                            <polygon id="Fill-2" points="6.84779487 10.1146667 8.01206154 10.1146667 8.01206154 13.5169231 9.82617436 13.5169231 9.82617436 14.6315077 6.84771282 14.6315077"></polygon>
                            <path d="M10.1554872,13.1370256 L11.2636513,13.0536923 C11.2876903,13.270041 11.3357662,13.4343077 11.4094851,13.5480923 C11.5288759,13.7315856 11.6995569,13.8229231 11.9207056,13.8229231 C12.0857703,13.8229231 12.2131774,13.7764492 12.302921,13.6826995 C12.3926646,13.5889497 12.4367344,13.4807754 12.4367344,13.3573867 C12.4367344,13.2404 12.3942667,13.1354379 12.3093313,13.0432944 C12.2243959,12.9511467 12.02648,12.8638072 11.7147877,12.7812841 C11.2051672,12.6434626 10.8413928,12.4607713 10.6242441,12.2324021 C10.4054954,12.0040328 10.2957108,11.7131815 10.2957108,11.3598072 C10.2957108,11.1274379 10.351801,10.9078892 10.4639795,10.701161 C10.57616,10.4944328 10.7444308,10.3317662 10.9695795,10.2139815 C11.1947487,10.0961928 11.503241,10.0368985 11.8950564,10.0368985 C12.3766359,10.0368985 12.7428103,10.1442708 12.9952205,10.3590113 C13.2476308,10.57376 13.3982564,10.9158933 13.4463385,11.3846523 L12.3477744,11.4615754 C12.3189292,11.2580492 12.2572287,11.1106215 12.164281,11.0184574 C12.0713333,10.9263097 11.9423323,10.8798359 11.7780656,10.8798359 C11.6426482,10.8798359 11.5408964,10.9142913 11.4727733,10.9832021 C11.4046646,11.0521128 11.3702092,11.1362462 11.3702092,11.2348123 C11.3702092,11.3069272 11.3982544,11.3710297 11.4551446,11.4287221 C11.5096308,11.4880164 11.64024,11.5441067 11.84536,11.5953887 C12.3533805,11.7267979 12.7179549,11.8598195 12.9375036,11.9944246 C13.1570523,12.12904 13.317319,12.2957169 13.4174626,12.4952246 C13.5176226,12.6947446 13.5673026,12.9175015 13.5673026,13.1642913 C13.5673026,13.4543631 13.5007959,13.7211733 13.3669826,13.9655631 C13.2339692,14.2099528 13.0472697,14.3958605 12.80768,14.5216451 C12.5680903,14.6482482 12.2660185,14.7107487 11.9022236,14.7107487 C11.2619979,14.7107487 10.8189005,14.5625108 10.5728903,14.2668308 C10.3269005,13.969559 10.1874749,13.5937641 10.1554133,13.1370256 L10.1554872,13.1370256 Z" id="Fill-3"></path>
                            <path d="M14.8252308,4.99446154 L10.8075897,1.0865641 C10.2354667,0.530482051 9.1617641,0.0945846154 8.36287179,0.0945846154 L1.80676923,0.0945846154 C0.827610256,0.0945846154 0.0311384615,0.89105641 0.0311384615,1.87021538 L0.0311384615,17.4287795 C0.0311384615,18.4079383 0.827610256,19.2036101 1.80596923,19.2036101 L14.0767385,19.2036101 C15.0558974,19.2036101 15.8515692,18.4071383 15.8515692,17.4287795 L15.8523713,7.42713846 C15.8523713,6.61062564 15.4108738,5.5641641 14.8251303,4.99452308 L14.8252308,4.99446154 Z M13.9999179,5.84301538 C14.1425456,5.98163692 14.2787692,6.18836923 14.3917538,6.41753846 L9.94785641,6.41753846 C9.62174359,6.41753846 9.35651282,6.15230769 9.35651282,5.82619487 L9.35571282,1.53450256 C9.60490256,1.64828513 9.83167179,1.78931282 9.98231795,1.93593846 L13.9999179,5.84301538 Z M14.0776431,18.0200408 L1.80687385,18.0200408 C1.48076103,18.0200408 1.21553026,17.7548103 1.21553026,17.4286974 L1.21473026,1.87013333 C1.21473026,1.54402051 1.47996103,1.27878974 1.80607385,1.27878974 L8.17140718,1.27878974 L8.17140718,5.82689231 C8.17140718,6.80605128 8.96787897,7.60172308 9.94623795,7.60172308 L14.668291,7.60172308 L14.668291,17.4285949 C14.6690892,17.7547077 14.4038585,18.0200408 14.0777456,18.0200408 L14.0776431,18.0200408 Z" id="Fill-4"></path>
                        </g>
                    </g>
                </g>
            </g>
        </g>
    </g>
</svg>